<?xml version="1.0" encoding="UTF-8"?>
<svg id="Layer_1" data-name="Layer 1" xmlns="http://www.w3.org/2000/svg" xmlns:xlink="http://www.w3.org/1999/xlink" version="1.1" viewBox="0 0 1080 1823">
  <defs>
    <style>
      .cls-1 {
        fill: #e6e6e6;
        stroke-width: 1px;
      }

      .cls-1, .cls-2, .cls-3, .cls-4 {
        stroke: #ed1e79;
      }

      .cls-1, .cls-3, .cls-5, .cls-6, .cls-7, .cls-8, .cls-9, .cls-4, .cls-10 {
        isolation: isolate;
      }

      .cls-1, .cls-3, .cls-8, .cls-11, .cls-4, .cls-10 {
        opacity: .2;
      }

      .cls-1, .cls-4, .cls-10 {
        stroke-miterlimit: 10;
      }

      .cls-2, .cls-12 {
        fill: none;
        stroke-miterlimit: 10;
        stroke-width: 1px;
      }

      .cls-13 {
        fill: #ffff39;
      }

      .cls-13, .cls-14, .cls-15 {
        stroke-width: 0px;
      }

      .cls-3 {
        stroke-miterlimit: 10;
      }

      .cls-3, .cls-4 {
        fill: #ff7bac;
      }

      .cls-5 {
        opacity: .8;
      }

      .cls-5, .cls-6, .cls-7, .cls-8, .cls-16 {
        mix-blend-mode: soft-light;
      }

      .cls-6 {
        opacity: .5;
      }

      .cls-7 {
        opacity: .9;
      }

      .cls-14 {
        fill: #f8a5d1;
        opacity: .1;
      }

      .cls-17 {
        opacity: .7;
      }

      .cls-18 {
        opacity: .8;
      }

      .cls-4, .cls-10 {
        stroke-width: 3px;
      }

      .cls-15 {
        fill: #fff;
      }

      .cls-12 {
        stroke: #ffff39;
      }

      .cls-10 {
        fill: #666;
        stroke: #666;
      }

      .cls-16 {
        opacity: .8;
      }
    </style>
  </defs>
  <g class="cls-9">
    <g id="Layer_1-2" data-name="Layer 1">
      <g class="cls-17">
        <image class="cls-9" width="869" height="918" transform="translate(13.5 916)" xlink:href="historybg-1.png"/>
      </g>
      <g class="cls-18">
        <image class="cls-9" width="169" height="169" transform="translate(475.5 1056)" xlink:href="historybg-2.png"/>
      </g>
      <image class="cls-9" width="834" height="1252" transform="translate(99.5 -17)" xlink:href="historybg-3.png"/>
      <image class="cls-9" width="169" height="169" transform="translate(468.5 1056)" xlink:href="historybg-4.png"/>
      <image class="cls-9" width="788" height="838" transform="translate(35.5 996)" xlink:href="historybg-5.png"/>
      <image class="cls-9" width="132" height="133" transform="translate(486.5 1066)" xlink:href="historybg-6.png"/>
      <image class="cls-9" width="778" height="1197" transform="translate(105.5 9)" xlink:href="historybg-7.png"/>
      <image class="cls-9" width="458" height="435" transform="translate(194.5 1199)" xlink:href="historybg-8.png"/>
      <image class="cls-9" width="393" height="379" transform="translate(229.5 1229)" xlink:href="historybg-9.png"/>
      <g class="cls-11">
        <image class="cls-8" width="796" height="847" transform="translate(40.5 946)" xlink:href="historybg-10.png"/>
        <g>
          <image class="cls-6" width="711" height="761" transform="translate(82.5 989)" xlink:href="historybg-11.png"/>
          <g>
            <image class="cls-7" width="630" height="682" transform="translate(123.5 1028)" xlink:href="historybg-12.png"/>
            <image class="cls-9" width="612" height="665" transform="translate(132.5 1037)" xlink:href="historybg-13.png"/>
          </g>
        </g>
      </g>
      <ellipse class="cls-10" cx="551" cy="1134.9" rx="45.7" ry="47.3" transform="translate(-641.1 722) rotate(-45)"/>
      <g class="cls-11">
        <image class="cls-5" width="763" height="1181" transform="translate(126.5 13)" xlink:href="historybg-14.png"/>
        <image class="cls-9" width="760" height="1179" transform="translate(127.5 15)" xlink:href="historybg-15.png"/>
      </g>
      <ellipse class="cls-4" cx="543.6" cy="1134.7" rx="45.7" ry="47.3" transform="translate(-643.2 716.7) rotate(-45)"/>
      <g class="cls-11">
        <image class="cls-9" width="787" height="839" transform="translate(26.5 990)" xlink:href="historybg-16.png"/>
      </g>
      <ellipse class="cls-1" cx="543.1" cy="1127.2" rx="28.9" ry="29.8" transform="translate(-638 714.2) rotate(-45)"/>
      <g class="cls-11">
        <image class="cls-9" width="778" height="1197" transform="translate(96.5 4)" xlink:href="historybg-17.png"/>
      </g>
      <polygon class="cls-3" points="536.5 1317.8 563.6 1312.2 586.9 1346.8 597.2 1388.8 572.9 1416.8 579.4 1514.7 517.8 1530.6 488 1582.8 420.8 1558.6 364.8 1574.5 300.4 1499.8 251 1488.6 247.2 1445.7 231.4 1419.6 295.8 1341.2 300.4 1272.1 330.3 1268.4 356.4 1239.5 433.9 1269.3 463.7 1250.7 536.5 1317.8"/>
      <g class="cls-11">
        <g>
          <rect class="cls-15" x="303.2" y="1284.3" width="226.6" height="258.2" rx="23.4" ry="23.4" transform="translate(-1025.6 1110.9) rotate(-61.7)"/>
          <rect class="cls-2" x="303.2" y="1284.3" width="226.6" height="258.2" rx="23.4" ry="23.4" transform="translate(-1025.6 1110.9) rotate(-61.7)"/>
        </g>
        <g class="cls-16">
          <rect class="cls-13" x="303.2" y="1284.3" width="226.6" height="258.2" rx="23.4" ry="23.4" transform="translate(-1025.6 1110.9) rotate(-61.7)"/>
          <rect class="cls-12" x="303.2" y="1284.3" width="226.6" height="258.2" rx="23.4" ry="23.4" transform="translate(-1025.6 1110.9) rotate(-61.7)"/>
        </g>
      </g>
      <g class="cls-11">
        <image class="cls-9" width="778" height="1197" transform="translate(169.5 -4)" xlink:href="historybg-18.png"/>
      </g>
    </g>
  </g>
  <rect class="cls-14" x="-1497.4" y="401" width="1080" height="1823"/>
</svg>